<svg width="88" height="88" viewBox="0 0 88 88" fill="none" xmlns="http://www.w3.org/2000/svg">
<path d="M0 9.77778V78.2222C0 80.8154 1.03016 83.3025 2.86384 85.1362C4.69753 86.9698 7.18455 88 9.77778 88H78.2222C83.6 88 88 83.6 88 78.2222V9.77778C88 4.4 83.6 0 78.2222 0H9.77778C7.18455 0 4.69753 1.03016 2.86384 2.86384C1.03016 4.69753 0 7.18455 0 9.77778ZM58.6667 29.3333C58.6667 37.4489 52.1156 44 44 44C35.8844 44 29.3333 37.4489 29.3333 29.3333C29.3333 21.2178 35.8844 14.6667 44 14.6667C52.1156 14.6667 58.6667 21.2178 58.6667 29.3333ZM14.6667 68.4444C14.6667 58.6667 34.2222 53.2889 44 53.2889C53.7778 53.2889 73.3333 58.6667 73.3333 68.4444V73.3333H14.6667V68.4444Z" fill="#02516C"/>
</svg>
